<svg xmlns="http://www.w3.org/2000/svg" viewBox="0 0 16 16" id="Square-Instagram--Streamline-Font-Awesome" height="16" width="16">
  <desc>
    Square Instagram Streamline Icon: https://streamlinehq.com
  </desc>
<!--! Font Awesome Free 6.5.2 by @fontawesome - https://fontawesome.com License - https://fontawesome.com/license/free (Icons: CC BY 4.0, Fonts: SIL OFL 1.1, Code: MIT License) Copyright 2024 Fonticons, Inc.-->
  <path d="M6.9639999999999995 6.4495000000000005c-1.1949214285714285 0.7988607142857141 -1.076957142857143 2.5916892857142857 0.2123357142857143 3.227092857142857 0.5983642857142857 0.2948928571428571 1.3086 0.2481607142857143 1.8631642857142856 -0.12259285714285713 1.1949214285714285 -0.7988607142857141 1.076957142857143 -2.5916892857142857 -0.2123357142857143 -3.227092857142857 -0.5983642857142857 -0.2948928571428571 -1.3086 -0.2481607142857143 -1.8631642857142856 0.12259285714285713Zm4.9805 -2.3939999999999997c-0.182 -0.182 -0.40249999999999997 -0.3255 -0.644 -0.42 -0.6335 -0.2485 -2.016 -0.238 -2.9085 -0.22749999999999998 -0.1435 0 -0.27649999999999997 0.0035 -0.392 0.0035 -0.11549999999999999 0 -0.252 0 -0.399 -0.0035 -0.8924999999999998 -0.010499999999999999 -2.268 -0.0245 -2.9015 0.22749999999999998 -0.24149999999999996 0.09449999999999999 -0.45849999999999996 0.238 -0.644 0.42s-0.3255 0.40249999999999997 -0.42 0.644c-0.2485 0.6335 -0.2345 2.0195 -0.22749999999999998 2.912 0 0.1435 0.0035 0.27649999999999997 0.0035 0.38849999999999996s0 0.245 -0.0035 0.38849999999999996c-0.007 0.8924999999999998 -0.020999999999999998 2.2784999999999997 0.22749999999999998 2.912 0.09449999999999999 0.24149999999999996 0.238 0.45849999999999996 0.42 0.644s0.40249999999999997 0.3255 0.644 0.42c0.6335 0.2485 2.016 0.238 2.9085 0.22749999999999998 0.1435 0 0.27649999999999997 -0.0035 0.392 -0.0035 0.11549999999999999 0 0.252 0 0.399 0.0035 0.8924999999999998 0.010499999999999999 2.268 0.0245 2.9015 -0.22749999999999998 0.24149999999999996 -0.09449999999999999 0.45849999999999996 -0.238 0.644 -0.42s0.3255 -0.40249999999999997 0.42 -0.644c0.252 -0.63 0.238 -2.009 0.22749999999999998 -2.905 0 -0.147 -0.0035 -0.2835 -0.0035 -0.399s0 -0.2485 0.0035 -0.399c0.010499999999999999 -0.8924999999999998 0.0245 -2.2714999999999996 -0.22749999999999998 -2.905 -0.09449999999999999 -0.24149999999999996 -0.238 -0.45849999999999996 -0.42 -0.644Zm-2.3484999999999996 1.5574999999999999c1.8375142857142857 1.2286 1.6559607142857142 3.985642857142857 -0.32679642857142854 4.962675 -0.9201999999999999 0.45344285714285715 -2.012410714285714 0.38152142857142857 -2.8652035714285713 -0.18867499999999998 -1.8375142857142857 -1.2272535714285715 -1.657417857142857 -3.983453571428571 0.32417142857142855 -4.961160714285714 0.9196607142857142 -0.4537535714285714 2.011535714285714 -0.38241071428571427 2.864328571428571 0.18716071428571426Zm1.022 -0.0455c-0.10849999999999999 -0.0735 -0.196 -0.1785 -0.2485 -0.301s-0.063 -0.2555 -0.0385 -0.38849999999999996 0.091 -0.2485 0.182 -0.34299999999999997 0.21349999999999997 -0.1575 0.34299999999999997 -0.182 0.266 -0.014 0.38849999999999996 0.0385 0.22749999999999998 0.13649999999999998 0.301 0.245 0.112 0.238 0.112 0.371c0 0.08750000000000001 -0.017499999999999998 0.17500000000000002 -0.049 0.2555s-0.08399999999999999 0.154 -0.1435 0.21699999999999997 -0.13649999999999998 0.112 -0.21699999999999997 0.147 -0.16799999999999998 0.0525 -0.2555 0.0525c-0.133 0 -0.26249999999999996 -0.0385 -0.371 -0.112ZM15.839999999999998 2.4c0 -1.2355 -1.0045 -2.2399999999999998 -2.2399999999999998 -2.2399999999999998H2.4C1.1645 0.16 0.16 1.1645 0.16 2.4v11.200000000000001c0 1.2355 1.0045 2.2399999999999998 2.2399999999999998 2.2399999999999998h11.200000000000001c1.2355 0 2.2399999999999998 -1.0045 2.2399999999999998 -2.2399999999999998V2.4Zm-3.185 10.254999999999999c-0.6545 0.6545 -1.449 0.861 -2.3449999999999998 0.9065 -0.9239999999999999 0.0525 -3.6959999999999997 0.0525 -4.62 0 -0.896 -0.0455 -1.6905000000000001 -0.252 -2.3449999999999998 -0.9065s-0.861 -1.449 -0.9029999999999999 -2.3449999999999998c-0.0525 -0.9239999999999999 -0.0525 -3.6959999999999997 0 -4.62 0.0455 -0.896 0.2485 -1.6905000000000001 0.9029999999999999 -2.3449999999999998s1.4525 -0.861 2.3449999999999998 -0.9029999999999999c0.9239999999999999 -0.0525 3.6959999999999997 -0.0525 4.62 0 0.896 0.0455 1.6905000000000001 0.2485 2.3449999999999998 0.9029999999999999s0.861 1.449 0.9029999999999999 2.3449999999999998c0.0525 0.9205 0.0525 3.689 0 4.616499999999999 -0.0455 0.896 -0.2485 1.6905000000000001 -0.9029999999999999 2.3449999999999998Z" fill="#00ffff" stroke-width="0.0357"></path>
</svg>