<svg xmlns="http://www.w3.org/2000/svg" viewBox="0 0 16 16" id="Js--Streamline-Font-Awesome" height="16" width="16">
  <desc>
    Js Streamline Icon: https://streamlinehq.com
  </desc>
<!--! Font Awesome Free 6.5.2 by @fontawesome - https://fontawesome.com License - https://fontawesome.com/license/free (Icons: CC BY 4.0, Fonts: SIL OFL 1.1, Code: MIT License) Copyright 2024 Fonticons, Inc.-->
  <path d="M0.16 0.16v15.68h15.68V0.16H0.16Zm8.533 12.229c0 1.526 -0.896 2.2224999999999997 -2.2015 2.2224999999999997 -1.1795 0 -1.862 -0.609 -2.2119999999999997 -1.3475l1.2005 -0.7245c0.23099999999999998 0.4095 0.441 0.7559999999999999 0.9484999999999999 0.7559999999999999 0.48299999999999993 0 0.7909999999999999 -0.18899999999999997 0.7909999999999999 -0.9274999999999999V7.3595h1.4735v5.0295Zm3.4859999999999998 2.2224999999999997c-1.3684999999999998 0 -2.254 -0.651 -2.6845 -1.505l1.2005 -0.693c0.315 0.5145 0.728 0.896 1.4525 0.896 0.609 0 1.001 -0.3045 1.001 -0.728 0 -0.504 -0.399 -0.6825 -1.0744999999999998 -0.98l-0.36749999999999994 -0.1575c-1.064 -0.45149999999999996 -1.7675 -1.022 -1.7675 -2.2224999999999997 0 -1.1059999999999999 0.8434999999999999 -1.946 2.156 -1.946 0.938 0 1.6099999999999999 0.3255 2.093 1.1795l-1.148 0.7349999999999999c-0.252 -0.45149999999999996 -0.5249999999999999 -0.63 -0.9484999999999999 -0.63 -0.4305 0 -0.7035 0.27299999999999996 -0.7035 0.63 0 0.441 0.27299999999999996 0.6194999999999999 0.9065 0.896l0.36749999999999994 0.1575c1.2530000000000001 0.5355 1.9564999999999997 1.085 1.9564999999999997 2.317 0 1.3229999999999997 -1.043 2.0509999999999997 -2.4395 2.0509999999999997Z" fill="#00ffff" stroke-width="0.0357"></path>
</svg>