<svg xmlns="http://www.w3.org/2000/svg" viewBox="0 0 16 16" id="Node--Streamline-Font-Awesome" height="16" width="16">
  <desc>
    Node Streamline Icon: https://streamlinehq.com
  </desc>
<!--! Font Awesome Free 6.5.2 by @fontawesome - https://fontawesome.com License - https://fontawesome.com/license/free (Icons: CC BY 4.0, Fonts: SIL OFL 1.1, Code: MIT License) Copyright 2024 Fonticons, Inc.-->
  <path d="M7.909350000000001 12.8018225c-0.051449999999999996 0 -0.10289999999999999 -0.0147 -0.14945 -0.039200000000000006l-0.4704 -0.27930000000000005c-0.07105 -0.039200000000000006 -0.03675 -0.0539 -0.01225 -0.061250000000000006 0.09310000000000002 -0.03185 0.11270000000000001 -0.039200000000000006 0.21315 -0.098 0.009800000000000001 -0.004900000000000001 0.0245 -0.0024500000000000004 0.034300000000000004 0.0024500000000000004l0.36260000000000003 0.2156c0.01225 0.00735 0.03185 0.00735 0.0441 0l1.4161000000000001 -0.8183c0.01225 -0.00735 0.02205 -0.02205 0.02205 -0.039200000000000006v-1.63415c0 -0.017150000000000002 -0.00735 -0.03185 -0.02205 -0.039200000000000006l-1.4161000000000001 -0.8158500000000001c-0.01225 -0.00735 -0.0294 -0.00735 -0.0441 0l-1.4161000000000001 0.8158500000000001c-0.0147 0.00735 -0.02205 0.0245 -0.02205 0.039200000000000006v1.63415c0 0.0147 0.009800000000000001 0.0294 0.02205 0.03675l0.3871 0.22294999999999998c0.21070000000000003 0.10535000000000001 0.34055 -0.019600000000000003 0.34055 -0.1421v-1.61455c0 -0.02205 0.017150000000000002 -0.04165 0.04165 -0.04165h0.17885c0.02205 0 0.04165 0.017150000000000002 0.04165 0.04165v1.61455c0 0.28175 -0.1519 0.44100000000000006 -0.41895 0.44100000000000006 -0.08085 0 -0.147 0 -0.32585000000000003 -0.0882l-0.37240000000000006 -0.21315c-0.09065000000000001 -0.0539 -0.14945 -0.1519 -0.14945 -0.25725v-1.63415c0 -0.10535000000000001 0.056350000000000004 -0.20579999999999998 0.14945 -0.25725l1.4161000000000001 -0.8183c0.09065000000000001 -0.051449999999999996 0.20825000000000002 -0.051449999999999996 0.29645000000000005 0l1.4161000000000001 0.8183c0.09065000000000001 0.0539 0.14945 0.1519 0.14945 0.25725v1.63415c0 0.10535000000000001 -0.056350000000000004 0.20579999999999998 -0.14945 0.25725l-1.4161000000000001 0.8183c-0.04165 0.02695 -0.09310000000000002 0.04165 -0.147 0.04165Zm1.14415 -1.6120999999999999c0 -0.30625 -0.20579999999999998 -0.3871 -0.6419 -0.44589999999999996 -0.44100000000000006 -0.0588 -0.48510000000000003 -0.0882 -0.48510000000000003 -0.19110000000000002 0 -0.08575 0.03675 -0.19845000000000002 0.36260000000000003 -0.19845000000000002 0.29155000000000003 0 0.39935000000000004 0.0637 0.44345 0.2597 0.004900000000000001 0.019600000000000003 0.019600000000000003 0.03185 0.039200000000000006 0.03185h0.18375c0.01225 0 0.02205 -0.004900000000000001 0.0294 -0.01225 0.00735 -0.009800000000000001 0.01225 -0.019600000000000003 0.009800000000000001 -0.03185 -0.0294 -0.3381 -0.25235 -0.4949 -0.7056 -0.4949 -0.40425000000000005 0 -0.6443500000000001 0.1715 -0.6443500000000001 0.45570000000000005 0 0.31115000000000004 0.24009999999999998 0.39445 0.6272000000000001 0.43365000000000004 0.46304999999999996 0.04655000000000001 0.4998 0.11270000000000001 0.4998 0.20335000000000003 0 0.15925 -0.1274 0.22540000000000002 -0.4263 0.22540000000000002 -0.37485 0 -0.45815000000000006 -0.09310000000000002 -0.48510000000000003 -0.27930000000000005 -0.0024500000000000004 -0.019600000000000003 -0.019600000000000003 -0.034300000000000004 -0.04165 -0.034300000000000004h-0.18375c-0.02205 0 -0.04165 0.017150000000000002 -0.04165 0.04165 0 0.23765000000000003 0.12985 0.52185 0.7497 0.52185 0.45325 0 0.7105000000000001 -0.1764 0.7105000000000001 -0.48510000000000003Zm1.33525 -1.2274500000000002c0 0.14945 -0.12250000000000001 0.27195 -0.27195 0.27195s-0.27195 -0.12250000000000001 -0.27195 -0.27195c0 -0.15435000000000001 0.1274 -0.27195 0.27195 -0.27195 0.147 -0.0024500000000000004 0.27195 0.1176 0.27195 0.27195Zm-0.0441 0c0 -0.1274 -0.10289999999999999 -0.22785000000000002 -0.2303 -0.22785000000000002 -0.12495 0 -0.22785000000000002 0.10045 -0.22785000000000002 0.22785000000000002 0 0.1274 0.10289999999999999 0.2303 0.22785000000000002 0.2303 0.1274 -0.0024500000000000004 0.2303 -0.10535000000000001 0.2303 -0.2303Zm-0.11025000000000001 0.1519h-0.0637c-0.0024500000000000004 -0.0147 -0.01225 -0.09310000000000002 -0.01225 -0.09555000000000001 -0.004900000000000001 -0.017150000000000002 -0.009800000000000001 -0.02695 -0.03185 -0.02695h-0.0539v0.12250000000000001h-0.0588v-0.30625h0.10535000000000001c0.03675 0 0.1078 0 0.1078 0.08085 0 0.056350000000000004 -0.03675 0.06860000000000001 -0.0588 0.07595 0.04165 0.0024500000000000004 0.0441 0.0294 0.051449999999999996 0.06860000000000001 0.0024500000000000004 0.0245 0.00735 0.06615 0.0147 0.08085Zm-0.06860000000000001 -0.2156c0 -0.04165 -0.0294 -0.04165 -0.0441 -0.04165h-0.049v0.08575h0.04655000000000001c0.039200000000000006 0 0.04655000000000001 -0.02695 0.04655000000000001 -0.0441Zm-6.6419500000000005 -3.4912500000000004c0 -0.06615 -0.034300000000000004 -0.12495 -0.09065000000000001 -0.15680000000000002l-1.5018500000000001 -0.8648500000000001c-0.0245 -0.0147 -0.0539 -0.02205 -0.0833 -0.0245h-0.0147c-0.0294 0 -0.056350000000000004 0.009800000000000001 -0.0833 0.0245l-1.4994 0.8648500000000001c-0.056350000000000004 0.03185 -0.09065000000000001 0.09310000000000002 -0.09065000000000001 0.15680000000000002l0.0024500000000000004 2.3275c0 0.03185 0.017150000000000002 0.061250000000000006 0.0441 0.07840000000000001 0.02695 0.017150000000000002 0.061250000000000006 0.017150000000000002 0.09065000000000001 0l0.8917999999999999 -0.51205c0.056350000000000004 -0.034300000000000004 0.09065000000000001 -0.09310000000000002 0.09065000000000001 -0.15680000000000002v-1.0878c0 -0.0637 0.034300000000000004 -0.12495 0.09065000000000001 -0.15680000000000002l0.37975000000000003 -0.21805c0.0294 -0.017150000000000002 0.0588 -0.0245 0.09065000000000001 -0.0245s0.0637 0.00735 0.09065000000000001 0.0245l0.37975000000000003 0.21805c0.056350000000000004 0.03185 0.09065000000000001 0.09310000000000002 0.09065000000000001 0.15680000000000002v1.0878c0 0.0637 0.034300000000000004 0.12495 0.09065000000000001 0.15680000000000002l0.8917999999999999 0.51205c0.02695 0.017150000000000002 0.0637 0.017150000000000002 0.09065000000000001 0 0.02695 -0.0147 0.0441 -0.04655000000000001 0.0441 -0.07840000000000001l0.004900000000000001 -2.3275Zm8.2124 -2.5406500000000003v4.3218000000000005c0 0.0637 -0.034300000000000004 0.12495 -0.09065000000000001 0.15680000000000002l-1.5018500000000001 0.8673000000000001c-0.056350000000000004 0.03185 -0.12495 0.03185 -0.18130000000000002 0l-1.5018500000000001 -0.8673000000000001c-0.056350000000000004 -0.03185 -0.09065000000000001 -0.09310000000000002 -0.09065000000000001 -0.15680000000000002v-1.7346000000000001c0 -0.0637 0.034300000000000004 -0.12495 0.09065000000000001 -0.15680000000000002l1.5018500000000001 -0.8673000000000001c0.056350000000000004 -0.03185 0.12495 -0.03185 0.18130000000000002 0l0.37485 0.2156c0.04165 0.0245 0.09555000000000001 -0.00735 0.09555000000000001 -0.0539v-2.3030000000000004c0 -0.06860000000000001 0.0735 -0.11270000000000001 0.13475 -0.07840000000000001l0.8942500000000001 0.4998c0.056350000000000004 0.0294 0.09310000000000002 0.09065000000000001 0.09310000000000002 0.15680000000000002Zm-1.127 3.1580500000000002c0 -0.017150000000000002 -0.009800000000000001 -0.03185 -0.02205 -0.039200000000000006l-0.5145 -0.2989c-0.0147 -0.00735 -0.03185 -0.00735 -0.04655000000000001 0l-0.5145 0.2989c-0.0147 0.00735 -0.02205 0.02205 -0.02205 0.039200000000000006v0.59535c0 0.017150000000000002 0.009800000000000001 0.03185 0.02205 0.039200000000000006l0.5145 0.29645000000000005c0.0147 0.00735 0.03185 0.00735 0.0441 0l0.5145 -0.29645000000000005c0.0147 -0.00735 0.02205 -0.02205 0.02205 -0.039200000000000006v-0.59535Zm5.1401 -0.017150000000000002c0.056350000000000004 -0.03185 0.09065000000000001 -0.09310000000000002 0.09065000000000001 -0.15680000000000002v-0.41895c0 -0.0637 -0.034300000000000004 -0.12495 -0.09065000000000001 -0.15680000000000002l-1.49205 -0.8673000000000001c-0.056350000000000004 -0.03185 -0.12495 -0.03185 -0.18130000000000002 0l-1.5018500000000001 0.8673000000000001c-0.056350000000000004 0.03185 -0.09065000000000001 0.09310000000000002 -0.09065000000000001 0.15680000000000002v1.7346000000000001c0 0.06615 0.034300000000000004 0.12495 0.09065000000000001 0.15680000000000002l1.49205 0.8501500000000001c0.0539 0.03185 0.12250000000000001 0.03185 0.17885 0l0.9016000000000001 -0.50225c0.061250000000000006 -0.034300000000000004 0.061250000000000006 -0.12250000000000001 0 -0.15680000000000002l-1.5116500000000002 -0.8673000000000001c-0.0294 -0.017150000000000002 -0.04655000000000001 -0.04655000000000001 -0.04655000000000001 -0.07840000000000001v-0.5439c0 -0.03185 0.017150000000000002 -0.061250000000000006 0.04655000000000001 -0.07840000000000001l0.4704 -0.27195c0.02695 -0.017150000000000002 0.0637 -0.017150000000000002 0.09065000000000001 0l0.4704 0.27195c0.02695 0.017150000000000002 0.04655000000000001 0.04655000000000001 0.04655000000000001 0.07840000000000001v0.4263c0 0.06860000000000001 0.07595 0.11270000000000001 0.13720000000000002 0.07840000000000001l0.8991500000000001 -0.52185Zm-1.8938500000000003 0.08575c-0.009800000000000001 0.00735 -0.017150000000000002 0.017150000000000002 -0.017150000000000002 0.0294v0.3332c0 0.01225 0.00735 0.0245 0.017150000000000002 0.0294l0.2891 0.1666c0.009800000000000001 0.00735 0.0245 0.00735 0.034300000000000004 0l0.2891 -0.1666c0.009800000000000001 -0.00735 0.017150000000000002 -0.017150000000000002 0.017150000000000002 -0.0294v-0.3332c0 -0.01225 -0.00735 -0.0245 -0.017150000000000002 -0.0294l-0.2891 -0.1666c-0.009800000000000001 -0.00735 -0.0245 -0.00735 -0.034300000000000004 0l-0.2891 0.1666Zm-6.227900000000001 1.0657500000000002v-1.7248c0 -0.0637 -0.039200000000000006 -0.12495 -0.09555000000000001 -0.15680000000000002l-1.49695 -0.8624c-0.051449999999999996 -0.0294 -0.12250000000000001 -0.034300000000000004 -0.18130000000000002 0l-1.49695 0.8624c-0.056350000000000004 0.03185 -0.09555000000000001 0.09065000000000001 -0.09555000000000001 0.15680000000000002v1.7248c0 0.06860000000000001 0.04655000000000001 0.1274 0.098 0.15680000000000002l1.4994 0.8624c0.0588 0.034300000000000004 0.1274 0.03185 0.18130000000000002 0l1.4945000000000002 -0.8624c0.0441 -0.0245 0.07595 -0.06615 0.0882 -0.11515 0.0024500000000000004 -0.01225 0.004900000000000001 -0.02695 0.004900000000000001 -0.04165Zm-1.82035 -3.0600500000000004 -0.019600000000000003 0.01225h0.02695l-0.00735 -0.01225Zm1.8669000000000002 3.1899 -0.009800000000000001 -0.017150000000000002v0.02205l0.009800000000000001 -0.004900000000000001Z" fill="#00ffff" stroke-width="0.025"></path>
</svg>