<svg xmlns="http://www.w3.org/2000/svg" viewBox="0 0 16 16" id="React--Streamline-Font-Awesome" height="16" width="16">
  <desc>
    React Streamline Icon: https://streamlinehq.com
  </desc>
<!--! Font Awesome Free 6.5.2 by @fontawesome - https://fontawesome.com License - https://fontawesome.com/license/free (Icons: CC BY 4.0, Fonts: SIL OFL 1.1, Code: MIT License) Copyright 2024 Fonticons, Inc.-->
  <path d="M13.06875 5.5375c-0.16875 -0.05625 -0.3375 -0.109375 -0.50625 -0.159375 0.028125 -0.115625 0.053125 -0.23125 0.078125 -0.346875 0.384375 -1.8625 0.13125 -3.359375 -0.721875 -3.853125 -0.821875 -0.471875 -2.1625 0.01875 -3.51875 1.2 -0.134375 0.115625 -0.265625 0.2375 -0.390625 0.359375 -0.084375 -0.08125 -0.171875 -0.1625 -0.259375 -0.240625 -1.421875 -1.2625 -2.846875 -1.79375 -3.7 -1.296875 -0.81875 0.475 -1.0625 1.884375 -0.71875 3.646875 0.034375 0.175 0.071875 0.346875 0.115625 0.521875 -0.2 0.05625 -0.396875 0.11875 -0.58125 0.184375C1.196875 6.13125 0 7.04375 0 7.9875c0 0.975 1.275 1.953125 3.009375 2.546875 0.140625 0.046875 0.28125 0.09375 0.425 0.134375 -0.046875 0.1875 -0.0875 0.371875 -0.125 0.5625 -0.328125 1.734375 -0.071875 3.109375 0.746875 3.58125 0.84375 0.4875 2.2625 -0.0125 3.64375 -1.221875 0.109375 -0.096875 0.21875 -0.196875 0.328125 -0.303125 0.1375 0.134375 0.28125 0.2625 0.425 0.3875 1.3375 1.15 2.659375 1.615625 3.475 1.14375 0.84375 -0.4875 1.11875 -1.965625 0.7625 -3.765625 -0.028125 -0.1375 -0.059375 -0.278125 -0.09375 -0.421875 0.1 -0.028125 0.196875 -0.059375 0.29375 -0.090625 1.803125 -0.596875 3.109375 -1.5625 3.109375 -2.553125 0 -0.946875 -1.23125 -1.865625 -2.93125 -2.45zM8.840625 2.884375c1.1625 -1.0125 2.246875 -1.409375 2.740625 -1.125 0.528125 0.303125 0.73125 1.528125 0.4 3.1375 -0.021875 0.10625 -0.04375 0.209375 -0.071875 0.3125 -0.69375 -0.15625 -1.396875 -0.26875 -2.103125 -0.33125 -0.40625 -0.58125 -0.85 -1.1375 -1.33125 -1.659375 0.121875 -0.115625 0.240625 -0.225 0.365625 -0.334375zM5.225 9.609375c0.159375 0.271875 0.321875 0.54375 0.49375 0.809375 -0.4875 -0.053125 -0.971875 -0.13125 -1.45 -0.234375 0.1375 -0.45 0.309375 -0.915625 0.509375 -1.390625 0.14375 0.275 0.290625 0.546875 0.446875 0.815625zm-0.946875 -3.759375c0.45 -0.1 0.928125 -0.18125 1.425 -0.24375 -0.165625 0.259375 -0.328125 0.525 -0.48125 0.79375 -0.153125 0.265625 -0.303125 0.5375 -0.44375 0.8125 -0.196875 -0.465625 -0.3625 -0.921875 -0.5 -1.3625zm0.85625 2.153125c0.20625 -0.43125 0.43125 -0.853125 0.66875 -1.26875s0.49375 -0.81875 0.7625 -1.215625c0.46875 -0.034375 0.946875 -0.053125 1.434375 -0.053125s0.96875 0.01875 1.434375 0.053125c0.265625 0.39375 0.51875 0.796875 0.759375 1.209375s0.465625 0.834375 0.678125 1.2625c-0.209375 0.43125 -0.434375 0.85625 -0.675 1.275 -0.2375 0.415625 -0.490625 0.81875 -0.75625 1.21875 -0.465625 0.034375 -0.95 0.05 -1.440625 0.05s-0.965625 -0.015625 -1.425 -0.04375c-0.271875 -0.396875 -0.528125 -0.803125 -0.76875 -1.21875s-0.4625 -0.8375 -0.671875 -1.26875zm5.64375 1.6c0.159375 -0.275 0.309375 -0.553125 0.45625 -0.834375 0.2 0.453125 0.375 0.9125 0.528125 1.384375 -0.484375 0.109375 -0.975 0.19375 -1.46875 0.25 0.16875 -0.2625 0.328125 -0.53125 0.484375 -0.8zm0.45 -2.390625c-0.146875 -0.275 -0.296875 -0.55 -0.453125 -0.81875 -0.153125 -0.265625 -0.3125 -0.528125 -0.478125 -0.7875 0.503125 0.0625 0.984375 0.146875 1.434375 0.25 -0.14375 0.4625 -0.3125 0.9125 -0.503125 1.35625zM8.00625 3.696875c0.328125 0.35625 0.6375 0.73125 0.925 1.11875 -0.61875 -0.028125 -1.240625 -0.028125 -1.859375 0 0.30625 -0.403125 0.621875 -0.778125 0.934375 -1.11875zM4.38125 1.78125c0.525 -0.30625 1.690625 0.13125 2.91875 1.21875 0.078125 0.06875 0.15625 0.14375 0.2375 0.21875 -0.484375 0.521875 -0.93125 1.078125 -1.340625 1.659375 -0.70625 0.0625 -1.40625 0.171875 -2.1 0.325 -0.040625 -0.159375 -0.075 -0.321875 -0.109375 -0.484375 -0.29375 -1.5125 -0.1 -2.653125 0.39375 -2.9375zm-0.765625 8.2375c-0.13125 -0.0375 -0.259375 -0.078125 -0.3875 -0.121875 -0.665625 -0.209375 -1.421875 -0.540625 -1.96875 -0.975 -0.315625 -0.21875 -0.528125 -0.55625 -0.5875 -0.934375 0 -0.571875 0.9875 -1.303125 2.4125 -1.8 0.178125 -0.0625 0.359375 -0.11875 0.540625 -0.171875 0.2125 0.678125 0.46875 1.34375 0.765625 1.9875 -0.3 0.653125 -0.559375 1.328125 -0.775 2.015625zm3.64375 3.0625c-0.515625 0.471875 -1.1125 0.846875 -1.7625 1.103125 -0.346875 0.165625 -0.746875 0.18125 -1.103125 0.040625 -0.496875 -0.2875 -0.703125 -1.390625 -0.421875 -2.875 0.034375 -0.175 0.071875 -0.35 0.115625 -0.521875 0.7 0.15 1.40625 0.253125 2.121875 0.30625 0.4125 0.584375 0.865625 1.14375 1.35 1.66875 -0.1 0.096875 -0.2 0.190625 -0.3 0.278125zm0.765625 -0.759375c-0.31875 -0.34375 -0.6375 -0.725 -0.946875 -1.134375 0.3 0.0125 0.609375 0.01875 0.921875 0.01875 0.321875 0 0.6375 -0.00625 0.95 -0.021875 -0.2875 0.396875 -0.596875 0.775 -0.925 1.1375zm4.084375 0.9375c-0.028125 0.38125 -0.215625 0.7375 -0.515625 0.978125 -0.496875 0.2875 -1.55625 -0.0875 -2.7 -1.06875 -0.13125 -0.1125 -0.2625 -0.234375 -0.396875 -0.359375 0.478125 -0.528125 0.91875 -1.0875 1.31875 -1.675 0.715625 -0.059375 1.428125 -0.16875 2.13125 -0.328125 0.03125 0.128125 0.059375 0.25625 0.084375 0.38125 0.153125 0.675 0.178125 1.378125 0.078125 2.071875zm0.56875 -3.359375c-0.0875 0.028125 -0.175 0.05625 -0.265625 0.08125 -0.21875 -0.68125 -0.4875 -1.346875 -0.796875 -1.99375 0.3 -0.6375 0.553125 -1.29375 0.765625 -1.965625 0.1625 0.046875 0.31875 0.096875 0.46875 0.146875 1.45625 0.5 2.478125 1.24375 2.478125 1.8125 0 0.6125 -1.090625 1.403125 -2.65 1.91875zm-4.678125 -0.46875c0.790625 0 1.43125 -0.640625 1.43125 -1.43125s-0.640625 -1.43125 -1.43125 -1.43125c-0.790625 0 -1.43125 0.640625 -1.43125 1.43125s0.640625 1.43125 1.43125 1.43125z" fill="#00ffff" stroke-width="0.0313"></path>
</svg>