<svg viewBox="0 0 16 16" fill="#00ffff" xmlns="http://www.w3.org/2000/svg" id="Tailwind-Css-Fill--Streamline-Remix-Fill" height="16" width="16">
  <desc>
    Tailwind Css Fill Streamline Icon: https://streamlinehq.com
  </desc>
  <path d="M7.9997333333333325 3.239993333333333c-2.1155466666666665 0 -3.437773333333333 1.0577733333333332 -3.9666599999999996 3.173333333333333 0.7933333333333332 -1.05778 1.7188866666666665 -1.4544466666666667 2.77666 -1.19 0.6035999999999999 0.15073333333333333 1.0346666666666666 0.5883866666666666 1.5126 1.07364C9.100466666666666 7.086333333333333 10.000266666666667 8 11.9664 8c2.115533333333333 0 3.4377999999999997 -1.0577999999999999 3.966666666666667 -3.1733466666666663 -0.7933333333333332 1.05778 -1.7188666666666665 1.4544466666666667 -2.7766666666666664 1.1900066666666667 -0.6035999999999999 -0.15073333333333333 -1.0346 -0.5883933333333333 -1.5126 -1.0736466666666666 -0.7774666666666665 -0.7893666666666667 -1.6772666666666665 -1.70302 -3.6440666666666663 -1.70302ZM4.033073333333333 8C1.91752 8 0.5952953333333333 9.0578 0.06640626666666666 11.173333333333334 0.85974 10.115533333333332 1.7852933333333332 9.718866666666667 2.8430733333333333 9.983333333333333c0.6035933333333333 0.15073333333333333 1.03464 0.5884 1.51262 1.0736666666666665 0.7781266666666666 0.7893333333333332 1.6778999999999997 1.7029999999999998 3.6440399999999995 1.7029999999999998 2.115533333333333 0 3.4377999999999997 -1.0577999999999999 3.966666666666667 -3.173333333333333 -0.7933333333333332 1.0577999999999999 -1.7188666666666665 1.4544666666666668 -2.7766666666666664 1.19 -0.6035999999999999 -0.15073333333333333 -1.0346666666666666 -0.5884 -1.5126 -1.0736666666666665C6.899666666666667 8.913666666666666 5.999879999999999 8 4.033073333333333 8Z" stroke-width="0.6667"></path>
</svg>